<?xml version="1.0" encoding="utf-8"?>
<!-- Generator: Adobe Illustrator 16.0.0, SVG Export Plug-In . SVG Version: 6.00 Build 0)  -->
<!DOCTYPE svg PUBLIC "-//W3C//DTD SVG 1.1//EN" "http://www.w3.org/Graphics/SVG/1.1/DTD/svg11.dtd">
<svg version="1.1" id="Layer_1" xmlns="http://www.w3.org/2000/svg" xmlns:xlink="http://www.w3.org/1999/xlink" x="0px" y="0px"
	 width="216px" height="216px" viewBox="0 0 216 216" enable-background="new 0 0 216 216" xml:space="preserve">
<path fill="#010101" d="M191.347,94.926c-5.551-5.737-13.219-9.128-21.172-9.361c1.275-3.708,1.947-7.7,1.912-11.844
	c-0.018-1.561-0.723-3.02-1.928-4.01c-1.209-0.974-2.785-1.376-4.311-1.091c-0.84,0.167-1.395,0.47-1.814,0.705
	c-4.16,2.315-7.617,2.784-9.797,2.784c-3.725,0-6.93-1.359-9.781-4.143c-4.645-4.546-5.102-11.409-1.359-20.988
	c0.27-0.671,0.438-1.125,0.555-1.611c0.371-1.509,0.031-3.103-0.887-4.361c-0.926-1.258-2.365-2.03-3.912-2.114
	c-2.031-0.101-4.025-0.05-5.973,0.168c-9.344,1.058-17.717,5.705-23.572,13.069c-5.852,7.365-8.486,16.574-7.431,25.92
	c0.086,0.771,0.221,1.543,0.354,2.315c-3.692-0.89-7.5-1.358-11.393-1.358c-22.917,0-42.274,15.836-47.108,37.697
	c-15.971,1.188-28.586,13.823-28.586,29.273c0,16.392,13.906,29.611,30.988,29.611l0,0h89.266c0.402,0,9.812,0.067,19.26-4.665
	c7.33-3.672,15.787-10.687,18.771-23.923c10.906-1.491,25.5-9.092,26.225-30.717C199.938,108.347,196.966,100.763,191.347,94.926z
	 M117.497,58.672c3.488-4.396,8.27-7.416,13.674-8.674c-2.436,10.167-0.254,17.247,3.037,22.028
	c-7.969,0.453-15.387,3.54-21.291,8.254c-0.287-1.107-0.502-2.231-0.637-3.389C111.54,70.315,113.388,63.856,117.497,58.672z
	 M149.624,160.037c-6.914,3.589-14.158,3.673-14.211,3.673l-89.282,0.135c-10.47,0-18.977-7.953-18.977-17.734
	c0-9.611,8.54-17.43,19.01-17.43c0.688,0,1.375,0.034,2.043,0.1c0,0,3.457,0.221,5.086-1.291c1.259-1.156,1.475-4.043,1.475-4.043
	c1.946-18.471,17.448-32.395,36.037-32.395c11.593,0,22.211,5.151,29.024,14.344c0.152,0.201,0.301,0.419,0.436,0.62
	c0.318,0.436,0.604,0.872,0.906,1.324c0.166,0.252,0.354,0.521,0.52,0.79c1.479,2.332,4.361,3.339,6.98,2.45
	c2.398-0.807,4.746-1.107,6.877-1.176c14.883,0.051,26.977,12.182,26.977,27.078C162.54,147.822,158.313,155.522,149.624,160.037z
	 M187.706,115.897c-0.436,12.952-7.818,17.279-13.219,18.723c-0.973-20.687-18.104-37.245-39.021-37.245
	c-2.148,0-4.277,0.167-6.377,0.521c-2.482-3.239-5.318-6.107-8.457-8.574c0.02-0.018,0.037-0.018,0.053-0.034
	c0-0.017-0.016-0.017-0.016-0.017c4.291-3.355,9.693-5.334,15.533-5.334c8.676,0,16.66,4.377,21.322,11.71
	c1.41,2.231,4.129,3.254,6.68,2.549c1.627-0.453,3.32-0.688,5.016-0.688c5.049,0,9.979,2.097,13.506,5.754
	C186.099,106.721,187.856,111.216,187.706,115.897z"/>
</svg>
