<?xml version="1.0" encoding="utf-8"?>
<!-- Generator: Adobe Illustrator 16.0.0, SVG Export Plug-In . SVG Version: 6.00 Build 0)  -->
<!DOCTYPE svg PUBLIC "-//W3C//DTD SVG 1.1//EN" "http://www.w3.org/Graphics/SVG/1.1/DTD/svg11.dtd">
<svg version="1.1" id="Layer_1" xmlns="http://www.w3.org/2000/svg" xmlns:xlink="http://www.w3.org/1999/xlink" x="0px" y="0px"
	 width="216px" height="216px" viewBox="0 0 216 216" enable-background="new 0 0 216 216" xml:space="preserve">
<g>
	<path fill="#010101" d="M184.368,48.235c0.703-0.855,0.418-2.366-0.688-3.456c-1.092-1.107-2.604-1.393-3.457-0.688
		c0,0-13.824,10.131-14.025,10.334c-1.543,1.56-1.041,4.563,1.123,6.727s5.186,2.667,6.729,1.124
		C174.249,62.059,184.368,48.235,184.368,48.235z"/>
	<path fill="#010101" d="M90.586,44.075c-0.855-0.688-2.366-0.403-3.474,0.687c-1.106,1.107-1.393,2.618-0.688,3.456
		c0,0,10.135,13.823,10.335,14.026c1.544,1.543,4.564,1.055,6.728-1.126c2.165-2.164,2.667-5.184,1.124-6.727
		C104.409,54.207,90.586,44.075,90.586,44.075z"/>
	<path fill="#010101" d="M138.249,26.693c-0.119-1.091-1.377-1.962-2.936-1.962c-1.561,0-2.818,0.871-2.938,1.962
		c0,0-2.615,16.928-2.615,17.229c0,2.181,2.48,3.959,5.553,3.959c3.07,0,5.555-1.778,5.555-3.959
		C140.868,43.638,138.249,26.693,138.249,26.693z"/>
	<path fill="#010101" d="M191.413,100.83c-5.738-5.924-13.707-9.329-21.912-9.396c-0.77-18.204-15.617-32.765-34.221-32.765
		c-16.746,0-30.451,11.811-33.574,27.463c-3.506-0.805-7.13-1.241-10.819-1.241c-22.899,0-42.275,15.836-47.108,37.679
		c-15.938,1.225-28.553,13.857-28.553,29.31c0,16.39,13.906,29.609,30.987,29.609h0.017h89.267c0.387,0,9.812,0.083,19.26-4.646
		c7.33-3.675,15.787-10.705,18.771-23.926c10.904-1.492,25.52-9.092,26.225-30.698C200.02,114.251,197.049,106.668,191.413,100.83z
		 M135.295,70.145c9.346,0,17.229,5.502,20.785,13.388c-5.82-3.657-12.648-5.67-19.777-5.67c-8.406,0-16.309,2.968-22.602,7.767
		C116.708,76.637,125.145,70.145,135.295,70.145z M149.708,165.938c-6.932,3.574-14.158,3.676-14.211,3.676l-89.284,0.133
		c-10.453,0-18.975-7.951-18.975-17.731c0-9.614,8.521-17.433,19.008-17.433c0.688,0,1.376,0.035,2.064,0.103
		c0,0,3.453,0.217,5.082-1.293c1.258-1.175,1.475-4.06,1.475-4.06c1.945-18.471,17.448-32.395,36.036-32.395
		c11.593,0,22.212,5.15,29.025,14.343c0.152,0.201,0.301,0.419,0.436,0.62c0.301,0.42,0.619,0.872,0.906,1.326
		c0.168,0.268,0.352,0.52,0.52,0.771c1.477,2.314,4.361,3.34,6.963,2.449c2.398-0.804,4.748-1.107,6.895-1.174
		c14.883,0.051,26.977,12.179,26.977,27.078C162.624,153.726,158.397,161.427,149.708,165.938z M187.788,121.783
		c-0.436,12.95-7.801,17.296-13.201,18.739c-0.973-20.686-18.104-37.229-39.037-37.229c-2.15,0-4.281,0.17-6.379,0.505
		c-2.482-3.237-5.316-6.108-8.455-8.574c0.018-0.016,0.035-0.016,0.051-0.032l-0.016-0.018c4.293-3.356,9.695-5.318,15.535-5.318
		c8.674,0,16.643,4.378,21.32,11.71c1.408,2.231,4.131,3.271,6.678,2.549c1.631-0.451,3.324-0.688,5.033-0.688
		c5.049,0,9.965,2.098,13.508,5.755C186.178,112.64,187.956,117.118,187.788,121.783z"/>
</g>
</svg>
