<?xml version="1.0" encoding="utf-8"?>
<!-- Generator: Adobe Illustrator 16.0.0, SVG Export Plug-In . SVG Version: 6.00 Build 0)  -->
<!DOCTYPE svg PUBLIC "-//W3C//DTD SVG 1.1//EN" "http://www.w3.org/Graphics/SVG/1.1/DTD/svg11.dtd">
<svg version="1.1" id="Layer_1" xmlns="http://www.w3.org/2000/svg" xmlns:xlink="http://www.w3.org/1999/xlink" x="0px" y="0px"
	 width="216px" height="216px" viewBox="0 0 216 216" enable-background="new 0 0 216 216" xml:space="preserve">
<g>
	<g>
		<path fill="#010101" d="M85.318,141.812L85.318,141.812c-0.449-0.742-1.242-1.244-2.16-1.244c-0.914,0-1.71,0.502-2.143,1.244
			h-0.017l-3.714,6.909c0,3.252,2.625,5.877,5.873,5.877s5.873-2.625,5.873-5.877L85.318,141.812z"/>
		<path fill="#010101" d="M85.318,162.529L85.318,162.529c-0.449-0.74-1.242-1.243-2.16-1.243c-0.914,0-1.71,0.503-2.143,1.243
			h-0.017l-3.714,6.91c0,3.25,2.625,5.877,5.873,5.877s5.873-2.627,5.873-5.877L85.318,162.529z"/>
	</g>
	<g>
		<path fill="#010101" d="M112.734,141.812L112.734,141.812c-0.434-0.742-1.244-1.244-2.162-1.244c-0.912,0-1.709,0.502-2.139,1.244
			h-0.02l-3.714,6.909c0,3.252,2.626,5.877,5.873,5.877c3.252,0,5.877-2.625,5.877-5.877L112.734,141.812z"/>
		<path fill="#010101" d="M112.734,183.261L112.734,183.261c-0.434-0.741-1.244-1.244-2.162-1.244c-0.912,0-1.709,0.503-2.139,1.244
			h-0.02l-3.714,6.896c0,3.248,2.626,5.876,5.873,5.876c3.252,0,5.877-2.628,5.877-5.876L112.734,183.261z"/>
		<path fill="#010101" d="M112.734,162.529L112.734,162.529c-0.434-0.74-1.244-1.243-2.162-1.243c-0.912,0-1.709,0.503-2.139,1.243
			h-0.02l-3.714,6.91c0,3.25,2.626,5.877,5.873,5.877c3.252,0,5.877-2.627,5.877-5.877L112.734,162.529z"/>
	</g>
	<g>
		<path fill="#010101" d="M140.167,141.812L140.167,141.812c-0.449-0.742-1.244-1.244-2.158-1.244c-0.92,0-1.713,0.502-2.145,1.244
			h-0.016l-3.734,6.909c0,3.252,2.623,5.877,5.875,5.877c3.246,0,5.873-2.625,5.873-5.877L140.167,141.812z"/>
		<path fill="#010101" d="M140.167,162.529L140.167,162.529c-0.449-0.74-1.244-1.243-2.158-1.243c-0.92,0-1.713,0.503-2.145,1.243
			h-0.016l-3.734,6.91c0,3.25,2.623,5.877,5.875,5.877c3.246,0,5.873-2.627,5.873-5.877L140.167,162.529z"/>
	</g>
	<path fill="#010101" d="M155.019,63.563c-2.482,0-4.949,0.203-7.383,0.588c-10.535-13.757-26.775-21.86-44.305-21.86
		c-26.508,0-48.938,18.34-54.523,43.639c-18.489,1.374-33.085,16.003-33.085,33.887c0,18.992,16.089,34.275,35.869,34.275l0,0h6.945
		v-13.604l-6.962,0.019c-12.113,0-21.962-9.211-21.962-20.518c0-11.126,9.883-20.183,22.012-20.183c0.789,0,1.594,0.034,2.383,0.118
		c0,0,4.009,0.233,5.871-1.497c1.46-1.357,1.711-4.697,1.711-4.697c2.266-21.372,20.216-37.495,41.741-37.495
		c13.422,0,25.717,5.972,33.604,16.608c0.166,0.236,0.352,0.485,0.52,0.721c0.352,0.505,0.705,1.008,1.039,1.527
		c0.201,0.303,0.402,0.588,0.586,0.905c1.73,2.686,5.053,3.859,8.072,2.836c2.77-0.939,5.488-1.276,7.971-1.359
		c17.229,0.049,31.236,14.106,31.236,31.354c0,13.12-4.898,22.047-14.965,27.262c-2.936,1.526-5.92,2.5-8.521,3.139v14.126
		c4.061-0.688,9.211-2.048,14.375-4.632c10.504-5.282,23.018-16.49,23.018-39.91C200.265,83.863,179.966,63.563,155.019,63.563z"/>
</g>
</svg>
