<?xml version="1.0" encoding="utf-8"?>
<!-- Generator: Adobe Illustrator 16.0.0, SVG Export Plug-In . SVG Version: 6.00 Build 0)  -->
<!DOCTYPE svg PUBLIC "-//W3C//DTD SVG 1.1//EN" "http://www.w3.org/Graphics/SVG/1.1/DTD/svg11.dtd">
<svg version="1.1" id="Layer_1" xmlns="http://www.w3.org/2000/svg" xmlns:xlink="http://www.w3.org/1999/xlink" x="0px" y="0px"
	 width="216px" height="216px" viewBox="0 0 216 216" enable-background="new 0 0 216 216" xml:space="preserve">
<g>
	<path fill="#010101" d="M101.591,127.53H81.609c-1.829,0-4.01,1.209-4.849,2.834L63.743,155.33
		c-0.839,1.625-0.051,2.749,1.761,2.749h13.538l-15.148,25.954c-0.922,1.576-0.587,1.93,0.771,0.705l34.576-33.066
		c1.359-1.24,0.974-3.773-0.854-3.773h-14.73l19.059-19.598C103.922,126.943,103.418,127.53,101.591,127.53z"/>
	<path fill="#010101" d="M123.466,142.662c0,2.785-2.248,5.049-5.049,5.049l0,0c-2.786,0-5.033-2.264-5.033-5.049v-10.25
		c0-2.785,2.247-5.049,5.033-5.049l0,0c2.801,0,5.049,2.264,5.049,5.049V142.662z"/>
	<path fill="#010101" d="M123.466,169.923c0,2.785-2.248,5.049-5.049,5.049l0,0c-2.786,0-5.033-2.264-5.033-5.049v-10.25
		c0-2.784,2.247-5.049,5.033-5.049l0,0c2.801,0,5.049,2.265,5.049,5.049V169.923z"/>
	<path fill="#010101" d="M190.604,58.677c-5.77-5.97-13.84-9.394-22.111-9.394c-1.356,0-2.717,0.085-4.059,0.269
		c-7.029-8.723-17.58-13.841-28.957-13.841c-10.167,0-19.562,4.329-26.305,10.972c-5.922-2.55-12.397-3.91-19.092-3.91
		c-22.9,0-42.277,15.839-47.108,37.697c-15.971,1.159-28.57,13.792-28.57,29.26c0,16.39,13.908,29.591,30.987,29.591l0,0h1.912
		v-11.743H45.39c-10.469,0-18.975-7.952-18.975-17.733c0-9.611,8.522-17.429,19.008-17.429c0.688,0,1.375,0.033,2.064,0.098
		c0,0,3.455,0.204,5.083-1.291c1.258-1.172,1.493-4.06,1.493-4.06c1.946-18.471,17.447-32.397,36.036-32.397
		c11.592,0,22.21,5.151,29.039,14.346c0.15,0.201,0.285,0.419,0.455,0.621c0.301,0.436,0.603,0.873,0.904,1.325
		c0.168,0.252,0.354,0.521,0.521,0.771c1.476,2.331,4.362,3.337,6.964,2.45c2.398-0.807,4.744-1.108,6.877-1.175
		c14.879,0.051,26.977,12.181,26.977,27.077c0,11.34-4.229,19.044-12.936,23.539c-3.49,1.812-7.045,2.717-9.729,3.186v12.064
		c3.705-0.453,9.244-1.58,14.795-4.346c7.332-3.676,15.786-10.705,18.775-23.922c10.904-1.478,25.515-9.093,26.219-30.703
		C199.196,72.082,196.228,64.5,190.604,58.677z M186.965,79.631c-0.437,12.953-7.8,17.282-13.202,18.724
		c-0.974-20.703-18.101-37.227-39.039-37.227c-2.148,0-4.278,0.167-6.375,0.502c-2.484-3.239-5.336-6.105-8.455-8.573
		c0.017,0,0.033-0.017,0.049-0.033c-0.016,0-0.016-0.017-0.016-0.017c4.296-3.355,9.695-5.333,15.535-5.333
		c8.673,0,16.643,4.377,21.324,11.707c1.426,2.231,4.125,3.257,6.674,2.553c1.629-0.456,3.323-0.688,5.033-0.688
		c5.051,0,9.984,2.097,13.507,5.754C185.354,70.473,187.118,74.952,186.965,79.631z"/>
</g>
</svg>
