<?xml version="1.0" encoding="utf-8"?>
<!-- Generator: Adobe Illustrator 16.0.0, SVG Export Plug-In . SVG Version: 6.00 Build 0)  -->
<!DOCTYPE svg PUBLIC "-//W3C//DTD SVG 1.1//EN" "http://www.w3.org/Graphics/SVG/1.1/DTD/svg11.dtd">
<svg version="1.1" id="Layer_1" xmlns="http://www.w3.org/2000/svg" xmlns:xlink="http://www.w3.org/1999/xlink" x="0px" y="0px"
	 width="216px" height="216px" viewBox="0 0 216 216" enable-background="new 0 0 216 216" xml:space="preserve">
<g>
	<path fill="#010101" d="M168.141,174.498c1.16,0.941,3.188,0.555,4.683-0.936c1.494-1.495,1.861-3.527,0.94-4.684
		c0,0-13.69-18.687-13.958-18.955c-2.099-2.098-6.174-1.428-9.094,1.508c-2.936,2.936-3.624,7.016-1.511,9.111
		C149.455,160.809,168.141,174.498,168.141,174.498z"/>
	<path fill="#010101" d="M197.15,112.409c1.475-0.151,2.65-1.845,2.65-3.959c0-2.113-1.176-3.825-2.65-3.976
		c0,0-22.901-3.54-23.305-3.54c-2.969,0-5.367,3.355-5.367,7.516c0,4.146,2.398,7.501,5.367,7.501
		C174.249,115.951,197.15,112.409,197.15,112.409z"/>
	<path fill="#010101" d="M173.764,47.987c0.937-1.157,0.554-3.187-0.94-4.68c-1.494-1.494-3.522-1.862-4.683-0.939
		c0,0-18.687,13.689-18.972,13.975c-2.098,2.097-1.426,6.172,1.51,9.107c2.916,2.937,6.996,3.608,9.093,1.511
		C160.058,66.677,173.764,47.987,173.764,47.987z"/>
	<path fill="#010101" d="M107.378,62.113c-25.82,0-46.322,20.786-46.322,46.321c0,25.532,20.485,46.303,46.322,46.303
		s46.318-20.771,46.318-46.303C153.697,82.899,133.215,62.113,107.378,62.113z M107.378,139.252
		c-17.213,0-30.82-13.825-30.82-30.817c0-16.996,13.592-30.821,30.82-30.821s30.816,13.825,30.816,30.821
		C138.195,125.427,124.59,139.252,107.378,139.252z"/>
	<path fill="#010101" d="M46.914,42.368c-1.141-0.94-3.186-0.555-4.679,0.939c-1.495,1.493-1.861,3.523-0.94,4.68
		c0,0,13.706,18.689,13.975,18.974c2.098,2.097,6.174,1.409,9.109-1.511c2.937-2.936,3.607-7.01,1.51-9.107
		C65.604,56.058,46.914,42.368,46.914,42.368z"/>
	<path fill="#010101" d="M103.669,198.006c0.15,1.475,1.864,2.647,3.978,2.647s3.808-1.173,3.976-2.647
		c0,0,3.521-22.901,3.521-23.287c0-2.953-3.355-5.368-7.497-5.368c-4.146,0-7.517,2.399-7.517,5.368
		C100.13,175.104,103.669,198.006,103.669,198.006z"/>
	<path fill="#010101" d="M111.385,18.864c-0.149-1.477-1.86-2.65-3.974-2.65c-2.114,0-3.824,1.174-3.976,2.65
		c0,0-3.542,22.9-3.542,23.287c0,2.968,3.372,5.368,7.501,5.368c4.145,0,7.5-2.4,7.5-5.368
		C114.927,41.764,111.385,18.864,111.385,18.864z"/>
	<path fill="#010101" d="M17.909,104.474c-1.479,0.133-2.651,1.847-2.651,3.96c0,2.097,1.173,3.808,2.651,3.958
		c0,0,22.901,3.539,23.284,3.539c2.972,0,5.37-3.355,5.37-7.497c0-4.145-2.398-7.517-5.37-7.517
		C40.81,100.935,17.909,104.474,17.909,104.474z"/>
	<path fill="#010101" d="M41.294,168.879c-0.94,1.156-0.555,3.188,0.94,4.684c1.493,1.49,3.522,1.877,4.679,0.936
		c0,0,18.69-13.689,18.975-13.974c2.098-2.098,1.427-6.174-1.51-9.11c-2.936-2.936-7.012-3.607-9.109-1.51
		C55,150.192,41.294,168.879,41.294,168.879z"/>
</g>
</svg>
