<?xml version="1.0" encoding="utf-8"?>
<!-- Generator: Adobe Illustrator 16.0.0, SVG Export Plug-In . SVG Version: 6.00 Build 0)  -->
<!DOCTYPE svg PUBLIC "-//W3C//DTD SVG 1.1//EN" "http://www.w3.org/Graphics/SVG/1.1/DTD/svg11.dtd">
<svg version="1.1" id="Layer_1" xmlns="http://www.w3.org/2000/svg" xmlns:xlink="http://www.w3.org/1999/xlink" x="0px" y="0px"
	 width="216px" height="216px" viewBox="0 0 216 216" enable-background="new 0 0 216 216" xml:space="preserve">
<g>
	<path fill="#010101" d="M145.291,143.034c-0.199,0-0.4,0-0.602,0.034H96.708v12.467l48.298-0.016
		c3.928,0.603,6.945,4.007,6.945,8.1c0,4.531-3.672,8.204-8.203,8.204c-3.438,0-6.238,2.802-6.238,6.243
		c0,3.437,2.801,6.238,6.238,6.238c11.41,0,20.686-9.275,20.686-20.686C164.434,152.213,156.684,143.034,145.291,143.034z"/>
	<path fill="#010101" d="M182.016,122.301h-7.717c0.033-0.034,0.051-0.069,0.084-0.103c-0.1,0.054-0.201,0.103-0.285,0.136
		c5.771-5.975,10.352-14.934,10.352-28.387c0-22.498-18.285-40.786-40.766-40.786c-2.232,0-4.465,0.187-6.662,0.538
		c-9.496-12.395-24.123-19.696-39.928-19.696c-23.89,0-44.105,16.528-49.139,39.327C31.312,74.552,18.16,87.742,18.16,103.863
		c0,17.094,14.495,30.885,32.329,30.885l0,0l85.458,0.064l-0.033,0.021L182,134.781c4.527,0,8.203,3.673,8.203,8.205
		c0,4.512-3.676,8.205-8.203,8.205c-3.457,0-6.242,2.801-6.242,6.238c0,3.439,2.785,6.241,6.242,6.241
		c11.408,0,20.686-9.278,20.686-20.685C202.701,131.576,193.426,122.301,182.016,122.301z M50.471,122.5
		c-10.922,0-19.796-8.303-19.796-18.504c0-10.033,8.892-18.186,19.829-18.186c0.722,0,1.426,0.034,2.148,0.103
		c0,0,3.606,0.216,5.301-1.343c1.309-1.225,1.543-4.227,1.543-4.227C61.528,61.099,77.7,46.569,97.093,46.569
		c12.096,0,23.168,5.371,30.282,14.965c0.15,0.22,0.301,0.436,0.453,0.656c0.32,0.452,0.637,0.903,0.939,1.376
		c0.184,0.269,0.369,0.536,0.537,0.805c1.543,2.415,4.545,3.491,7.264,2.566c2.484-0.855,4.947-1.157,7.18-1.226
		c15.537,0.053,28.152,12.701,28.152,28.251c0,9.415-2.801,16.41-8.521,21.256c0.016-0.333,0.031-0.671,0.031-0.988
		c0-11.406-9.277-20.686-20.686-20.686c-3.438,0-6.24,2.801-6.24,6.241c0,3.457,2.803,6.242,6.24,6.242
		c4.514,0,8.205,3.673,8.205,8.203c0,4.095-3.021,7.498-6.963,8.086L50.471,122.5z"/>
</g>
</svg>
